<?xml version="1.0" encoding="utf-8"?>
<!-- Generator: Adobe Illustrator 16.0.0, SVG Export Plug-In . SVG Version: 6.00 Build 0)  -->
<!DOCTYPE svg PUBLIC "-//W3C//DTD SVG 1.1//EN" "http://www.w3.org/Graphics/SVG/1.1/DTD/svg11.dtd" [
	<!ENTITY ns_extend "http://ns.adobe.com/Extensibility/1.0/">
	<!ENTITY ns_ai "http://ns.adobe.com/AdobeIllustrator/10.0/">
	<!ENTITY ns_graphs "http://ns.adobe.com/Graphs/1.0/">
	<!ENTITY ns_vars "http://ns.adobe.com/Variables/1.0/">
	<!ENTITY ns_imrep "http://ns.adobe.com/ImageReplacement/1.0/">
	<!ENTITY ns_sfw "http://ns.adobe.com/SaveForWeb/1.0/">
	<!ENTITY ns_custom "http://ns.adobe.com/GenericCustomNamespace/1.0/">
	<!ENTITY ns_adobe_xpath "http://ns.adobe.com/XPath/1.0/">
]>
<svg version="1.1" id="Layer_1" xmlns:x="&ns_extend;" xmlns:i="&ns_ai;" xmlns:graph="&ns_graphs;"
	 xmlns="http://www.w3.org/2000/svg" xmlns:xlink="http://www.w3.org/1999/xlink" x="0px" y="0px" width="52px" height="52px"
	 viewBox="0 0 52 52" style="enable-background:new 0 0 52 52;" xml:space="preserve">
<metadata>
	<sfw  xmlns="&ns_sfw;">
		<slices></slices>
		<sliceSourceBounds  width="123.09" height="123.09" y="-123.55" x="0.45" bottomLeftOrigin="true"></sliceSourceBounds>
	</sfw>
</metadata>
<g>
	<circle style="fill:#0CAE7E;" cx="26" cy="26" r="25.55"/>
	<path style="opacity:0.4;fill:#2CC693;" d="M4.44,39.71C1.92,35.75,0.45,31.05,0.45,26C0.45,11.89,11.89,0.45,26,0.45
		c7.02,0,13.38,2.83,18,7.42L4.44,39.71z"/>
	<path style="fill:#FFFFFF;" d="M41.2,37.82L30.17,26.78c3.45-4.41,3.16-10.82-0.91-14.89c-4.39-4.39-11.53-4.39-15.92,0
		c-4.39,4.39-4.39,11.53,0,15.92c3.93,3.93,10.05,4.33,14.45,1.23c0.01,0.01,0.01,0.03,0.02,0.04l11.06,11.06
		c0.59,0.59,1.55,0.59,2.14,0l0.19-0.19C41.79,39.37,41.79,38.41,41.2,37.82z M15.18,25.98c-3.38-3.38-3.38-8.87,0-12.25
		s8.87-3.38,12.25,0c3.38,3.38,3.38,8.87,0,12.25C24.05,29.36,18.55,29.36,15.18,25.98z"/>
</g>
</svg>
