<?xml version="1.0" encoding="utf-8"?>
<!-- Generator: Adobe Illustrator 16.0.0, SVG Export Plug-In . SVG Version: 6.00 Build 0)  -->
<!DOCTYPE svg PUBLIC "-//W3C//DTD SVG 1.1//EN" "http://www.w3.org/Graphics/SVG/1.1/DTD/svg11.dtd">
<svg version="1.1" xmlns="http://www.w3.org/2000/svg" xmlns:xlink="http://www.w3.org/1999/xlink" x="0px" y="0px" width="706px"
	 height="214px" viewBox="0 0 706 214" style="enable-background:new 0 0 706 214;" xml:space="preserve">
<g id="guides">
</g>
<g id="grey_BG_x27_s">
</g>
<g id="Layer_2">
</g>
<g id="WHAT">
	<polygon style="fill:#FAB905;" points="38.75,214 0,146 38.75,78 116.25,78 155,146 116.25,214 	"/>
	<polygon style="fill:#FAB905;" points="176.5,136 137.75,68 176.5,0 254,0 292.75,68 254,136 	"/>
	<polygon style="fill:#F4CB64;" points="0,146 38.75,78 116.25,78 	"/>
	<polygon style="fill:#0CAE7E;" points="314.25,214 275.5,146 314.25,78 391.75,78 430.5,146 391.75,214 	"/>
	<polygon style="opacity:0.4;fill:#2CC693;" points="275.5,146 314.25,78 391.75,78 	"/>
	<polygon style="fill:#FAB905;" points="452,136 413.25,68 452,0 529.5,0 568.25,68 529.5,136 	"/>
	<polygon style="fill:#137DA1;" points="589.75,214 551,146 589.75,78 667.25,78 706,146 667.25,214 	"/>
	<polygon style="opacity:0.4;fill:#29AACC;" points="551,146 589.75,78 667.25,78 	"/>
	<path style="fill:#FFFFFF;" d="M399.01,173.94c-1.58-10.23-9.17-13.41-21.09-16.1c-11.92-2.69-13.59-6.17-13.66-11.92
		s0.58-5.11,1.91-7.52c1.79-3.25,0.59-6.83,0.59-6.83c2.22,2,5.77-0.36,6.95-5.18s0.64-8.29-1.04-8.97
		c-0.37-0.15-0.74-0.16-1.09-0.09c0-0.01,0-0.01,0-0.02c0.71-1.04,1.25-2.93,1.25-2.93c0.14,1.02,0.83,1.41,0.83,1.41
		c-0.52-1.88-0.45-3.26-0.45-3.26c0.4,0.65,1.16,0.79,1.16,0.79c-1.77-2.28-1.36-6.54-1.36-6.54c0.39,0.79,1.19,0.78,1.19,0.78
		s-1.53-1.98-1.97-6.95c-0.44-4.97-3.63-7.15-3.63-7.15c1,0.49,2.13,0.15,2.13,0.15c-0.48,0.02-1.6-0.43-3.13-1.79
		c-1.53-1.36-6.85-5.65-13.42-5.62s-7.3,3.53-7.3,3.53s-4.77-1.82-10.1,5.5c-5.3,7.27-4.56,14.37-4.56,14.37s0.32-0.98,0.73-1.23
		c0,0-0.62,1.4,0.02,4.6c0,0,0.18-0.81,0.45-1.01c0,0-0.36,1.41,0.47,3.29c0,0-0.03-1.14,0.35-1.61c0,0-0.33,2.24,1.37,4.2
		c-0.62-0.43-1.44-0.76-2.26-0.43c-1.68,0.68-2.23,4.16-1.04,8.97s4.72,7.17,6.95,5.18c0,0-1.2,3.59,0.59,6.83
		c1.33,2.41,1.98,1.76,1.91,7.52c-0.07,5.76-1.74,9.23-13.66,11.92c-11.92,2.69-19.51,5.88-21.09,16.1
		c-1.17,7.58-0.17,8.58-1.63,11.85h95.29C399.18,182.51,400.18,181.52,399.01,173.94z"/>
	<path style="fill:#FFFFFF;" d="M671.11,162.57c-16.3-9.39-30.28-7.81-30.28-18.63c0-2.5,1.08-4.61,1.83-5.77
		c3.04-3.61,5.43-8.24,6.84-13.26c0.23,0.72,3.54,0.49,5.15-4.18c1.61-4.69,0.61-6.83-1.07-7.26c-1.37-0.35-2.33,0.66-2.63,1.04
		c-0.02-15.47-9.88-25.81-22.28-25.81c-12.35,0-22.58,10.27-22.67,25.64c-0.4-0.44-1.28-1.18-2.48-0.87
		c-1.67,0.43-2.67,2.57-1.07,7.26c1.48,4.32,4.42,4.84,5.04,4.33c1.44,5.05,3.86,9.69,6.94,13.28c0.74,1.19,1.72,3.22,1.72,5.6
		c0,10.82-13.97,9.24-30.28,18.63c-9.7,5.58-11.94,20.73-11.94,20.73h109.09C683.04,183.3,680.8,168.16,671.11,162.57z"/>
	<path style="fill:#FFFFFF;" d="M93.32,155.28c-5.53-4.36-5.58-6.9-3.71-10.79c1.63-3.4,1.29-5.92,1.17-6.51
		c0.14,0.47,0.72,0.99,1.54,0.77c0.9-0.25,1.3-2.26,2-4.29c0.84-2.43,0.74-5.44-0.45-6.17c-1.19-0.73-1.84,0.83-1.91,1.02
		c0.36-2.06,2.77-2.64,3.1-3.09c0.19-0.26,0.18-1.82,0.12-2.37c-0.06-0.55,1.78-1.88,1.76-2.74c-0.02-0.93-0.58-2.72-0.61-2.9
		c-0.05-0.33,1.46-2.28,1.47-2.9c0.01-0.56-0.61-1.01-2.88-4.54s0.01-5.42-0.15-6.2c-0.13-0.63-1.46-1.37-5.13-3.3
		c-3.68-1.93-4.61-3.69-4.61-3.69s0.66,0.17,1.29-0.28c0.63-0.44,1.58-0.35,1.58-0.35c-0.57-2.01-3.6-1.96-3.6-1.96
		c0.31-0.31,2.7-1.75,2.71-2.48c0.01-0.74-2.54-3-3.14-3.08c-0.6-0.08-1.91,1.56-1.91,1.56c0.17-1.21,0.73-2.83,0.78-3.79
		c0.04-0.95-3.52-2.24-6.71-2.24s-7.14,1.36-7.4,1.79c-0.26,0.43-0.12,1.56,0.23,2.93c0.35,1.36,0.26,1.09-0.46,0.64
		s-1.26-0.44-1.85-0.5c-0.6-0.06-1.26,0.43-2.47,1.84s-1.78,2.61-1.55,2.93c0.23,0.32,1.27,0.6,1.81,0.95
		c0.54,0.35,0.35,0.61-0.4,0.93c-0.75,0.32-1.98,1.44-1.82,1.81c0.15,0.37,2.28,0.25,2.31,0.54c0.03,0.29-0.93,0.64-1.46,1.42
		s0.35,0.95,0.98,0.9c0.63-0.05,1.13,0.14,1.13,0.14c-1.82,1.24-3.11,3.77-3.75,4.63c-0.64,0.86-1.73,1.65-2.13,2.94
		s-0.15,2.87,0.43,3.48c0.58,0.61,0.35,1.44,0.06,1.85s-0.81,1.33-0.93,2.39c-0.12,1.06,1.87,1.69,1.35,2.41
		c-0.52,0.72-1,2.16-0.73,2.59c0.26,0.43,1.36,1.12,1.55,1.46c0.18,0.34-0.61,1.84-0.57,2.3c0.04,0.46,1.23,0.76,1.99,1.62
		c0.56,0.65,0.62,1.67,0.61,2.15c-0.22-0.46-0.84-1.42-1.82-0.82c-1.19,0.73-1.29,3.74-0.45,6.17c0.7,2.03,1.1,4.04,2,4.29
		c0.82,0.22,1.4-0.3,1.54-0.77c-0.11,0.59-0.46,3.11,1.17,6.51c1.87,3.89,1.83,6.43-3.71,10.79c-7.63,6.01-24.91,6.86-25.53,31.75
		h82.7C118.24,162.14,100.95,161.28,93.32,155.28z"/>
	<polygon style="fill:#105C80;" points="516.63,183 506,164.5 516.63,146 537.89,146 548.52,164.5 537.89,183 	"/>
	<polygon style="fill:#0CAE7E;" points="584.63,69 574,50.5 584.63,32 605.89,32 616.52,50.5 605.89,69 	"/>
	<polygon style="fill:#8E2828;" points="381.63,69 371,50.5 381.63,32 402.89,32 413.52,50.5 402.89,69 	"/>
	<polygon style="fill:#0CAE7E;" points="240.63,191 230,172.5 240.63,154 261.89,154 272.52,172.5 261.89,191 	"/>
	<polygon style="fill:#105C80;" points="105.63,69 95,50.5 105.63,32 126.89,32 137.52,50.5 126.89,69 	"/>
	<path style="fill:#FFFFFF;" d="M532.41,94.45c-2-8.69-11.94-10.81-21.88-14.56c-9.94-3.75-8-13.34-8-13.34
		c1.22,0.31,1.34,1.88,1.34,1.88c0.91-1.53,0.31-3.19,0.31-3.19c0.91,0.44,1.44,2.31,1.44,2.31c1.34-2.44-0.44-4.84-0.44-4.84
		c1.25-0.03,1.75-1,1.75-1c-1.22,0.22,0.47-1.87,0.47-1.87c0.06,0,1.02,0.54,2.14-0.71c2.17-2.42,3.04-6.5,2.31-8.54
		c-0.66-1.83-2.11-1.3-2.34-1.2c0.21-0.09,1.36-0.63,1.91-1.26c0.6-0.69,1.46-1.92,2.52-1.65c0,0-0.67-1.19-2.12-1.21
		c0,0,2.31-0.44,2.52-2.31c0.21-1.87,0.92-3.04,0.92-3.04s-0.54-0.19-1.38,0.59c-0.71,0.66-1.28,0.2-2.24,0.61
		c0,0,1.73-0.92,1.67-3.38c0,0-1.23,0.87-1.94,0.65c0,0,1.9-1.81,1.56-4.81c0,0-0.22,0.69-0.91,0.75c-0.69,0.06-1.36-0.25-2.17,0.08
		c0,0,1.89-1.11,0.94-3.39c0,0-0.28,1.08-1.34,1.22c-1.06,0.14-2.55-0.84-4-3.36c-1.45-2.52-4.41-4.47-7.31-3.63
		c0,0,2.18-2.8,0.34-6.05c0,0-0.06,0.92-0.55,1.58s-1.03,1.28-1.19,1.92c0,0-1.29-4.69-5.6-4.92c0,0,0.68,0.6,0.97,1.1
		c0.3,0.49,0.31,1.07,0.59,1.55c0,0-1.85-2.25-4.16-2.25c-2.31,0-3.15-0.35-3.15-0.35s0.4,1.75,1.49,2.47
		c-0.39-0.2-1.48-0.57-3.24,0.37c-2.23,1.19-4.04-0.21-4-1.58c0,0-0.87,0.71-0.85,2.04c0.02,1.33,1.02,2.71,2.73,2.81
		c0,0-1.48,0.65-2.27-0.08c0,0-0.04,1.81,2,2.4c0,0-3.1-0.83-4.69,2.52s-2.17,4.77-2.98,5.19c-0.81,0.42-2.04-0.04-2.1-1.06
		c0,0-0.96,2.12,0.48,3.71c0,0-1.75,0.48-2.83-0.79c0,0-0.42,4.12,2.44,6.27c0,0-1.33,0.4-2.12-0.25c0,0-0.38,3.42,3.38,5
		c1.21,0.51,1.41,0.78,1.22,0.9c-0.2-0.07-2.81-0.9-3.86,1.32c-1.09,2.31,0.19,6.53,2,8.84c1.81,2.31,4.16,1.94,4.31,2.53
		c0,0-0.69,1.5-1.91,1.28c0,0,0.5,0.97,1.75,1c0,0-1.78,2.41-0.44,4.84c0,0,0.53-1.87,1.44-2.31c0,0-0.59,1.66,0.31,3.19
		c0,0,0.12-1.56,1.34-1.88c0,0,1.94,9.59-8,13.34c-9.94,3.75-19.87,5.88-21.87,14.56s-1.38,13.19-1.38,13.19h86.06
		C533.78,107.63,534.4,103.13,532.41,94.45z"/>
	<path style="fill:#FFFFFF;" d="M262.07,89.14c-3.31-3.76-5.09-2.99-19.36-8.79c-14.27-5.8-13.06-15.99-13.06-15.99
		c3.57-3.95,2.93-9.43,2.93-9.43c1.08,0.96,2.93-1.02,4.65-4.01c1.72-2.99,1.7-6.43,0.49-7.26c-1.21-0.83-2.1,0.08-2.1,0.08
		c0.55-1.46,1.12-1.29,1.66-1.53c0.43-0.19,0.09-0.52-0.04-1.19c-0.1-0.51,0.53-0.37,0.61-0.74c0.07-0.3-0.38-0.43-0.21-1.32
		c0.17-0.89,0.58-0.93,0.49-1.18c-0.19-0.51-0.16-0.7,0.07-1.19c0.41-0.9,0.46-1.68,0.23-2.49c-0.16-0.56-0.16-0.81,0.19-1.05
		c0.21-0.15-0.12-0.48-0.18-1.26c-0.06-0.79,0.14-0.85-0.16-1.05c-0.47-0.32-0.37-0.15-0.72-0.69c-0.35-0.54,0-0.87-0.07-1.08
		c-0.07-0.21,0.03-0.58-0.16-0.78c-0.18-0.19-0.28-0.52-0.38-0.68c-0.09-0.16-0.52-0.22-0.63-0.33c-0.12-0.11-0.18-0.6-0.28-0.86
		c-0.1-0.25-0.54-0.41-0.71-0.66c-0.18-0.25-0.39-1.26-1.55-1.52c-0.39-0.09-0.58-0.1-0.74-0.22c-1.17-2.82-3.99-5.52-8.26-7.01
		c-0.3-1.11-0.82-2.01-1.57-2.67c-0.71-0.64-1.61-1.03-2.58-1.14c-0.97-0.11-1.92,0.06-2.76,0.45c-0.06-0.03-0.12-0.07-0.18-0.1
		c-0.85-0.44-1.81-0.6-2.78-0.46c-1.98,0.28-3.64,1.68-4.15,3.47c-5.13,1.35-8.47,4.33-9.78,7.47c-0.16,0.12-0.29,0.28-0.69,0.33
		c-0.59,0.08-0.4,0.43-0.6,0.68c-0.21,0.25-0.59,0.27-0.76,0.52c-0.18,0.25,0.01,0.53-0.09,0.79c-0.1,0.25-0.5,0.27-0.61,0.38
		c-0.12,0.11-0.15,0.47-0.25,0.63c-0.1,0.16-0.48,0.2-0.67,0.39c-0.18,0.19-0.02,0.44-0.09,0.65c-0.07,0.21-0.3,0.27-0.49,0.59
		c-0.17,0.29,0.03,0.53-0.11,0.78c-0.28,0.49-0.52,0.19-0.53,0.85c-0.01,0.79-0.67,1.28-0.48,1.67c0.19,0.39,0.16,1.03-0.01,1.67
		c-0.17,0.63-0.56,1.23,0.05,2.24c0.43,0.7,0.5,1.19,0.25,1.71c-0.24,0.49-0.57,0.17-0.4,1.06c0.17,0.89,0.29,1.1,0.68,1.45
		c0.29,0.25,0.53,0.19,0.62,0.74c0.1,0.67-0.29,1.04-0.04,1.19c0.5,0.31,1.1,0.06,1.66,1.53c0,0-0.89-0.91-2.1-0.08
		c-1.21,0.83-1.23,4.27,0.49,7.26c1.72,2.99,3.57,4.97,4.65,4.01c0,0-0.64,5.48,2.93,9.43c0,0,1.21,10.19-13.05,15.99
		c-14.27,5.79-16.05,5.03-19.36,8.79c-4.56,5.17-3.31,16.5-3.31,16.5h96.75C265.38,105.63,266.63,94.31,262.07,89.14z M220.53,13.92
		c1.54,0.17,2.7,1.14,3.28,2.68c-1.18-0.34-2.46-0.6-3.84-0.75c-0.36-0.7-0.8-1.27-1.31-1.73
		C219.25,13.93,219.89,13.85,220.53,13.92z M211.71,16.22c0.55-1.24,1.84-2.21,3.3-2.42c0.71-0.1,1.39-0.01,2,0.24
		c-0.6,0.44-1.09,1.01-1.42,1.68l0.03,0.01C214.22,15.8,212.92,15.97,211.71,16.22z M217.03,15.71c-0.01,0-0.02,0-0.02,0
		c-0.01,0-0.02,0-0.03,0c0,0,0,0,0,0c-0.14,0-0.29,0-0.42,0c0.31-0.48,0.76-0.89,1.27-1.2c0.43,0.32,0.82,0.74,1.14,1.26
		C218.34,15.72,217.7,15.71,217.03,15.71C217.03,15.71,217.03,15.71,217.03,15.71z"/>
</g>
<g id="footer">
</g>
<g id="WHY">
</g>
<g id="Testimonials">
</g>
<g id="you">
</g>
<g id="grid">
</g>
</svg>
