<?xml version="1.0" encoding="utf-8"?>
<!-- Generator: Adobe Illustrator 16.0.0, SVG Export Plug-In . SVG Version: 6.00 Build 0)  -->
<!DOCTYPE svg PUBLIC "-//W3C//DTD SVG 1.1//EN" "http://www.w3.org/Graphics/SVG/1.1/DTD/svg11.dtd">
<svg version="1.1" xmlns="http://www.w3.org/2000/svg" xmlns:xlink="http://www.w3.org/1999/xlink" x="0px" y="0px" width="53.37px"
	 height="51.95px" viewBox="0 0 53.37 51.95" style="enable-background:new 0 0 53.37 51.95;" xml:space="preserve">
<g id="WHY">
	<g>
		<circle style="fill:#0CAE7E;" cx="26.8" cy="25.97" r="25.86"/>
		<path style="opacity:0.4;fill:#2CC693;" d="M4.76,40.08c-2.57-4.03-4.05-8.81-4.05-13.94c0-14.34,11.63-25.97,25.97-25.97
			c7.14,0,13.6,2.88,18.3,7.54L4.76,40.08z"/>
		<path style="fill:#FFFFFF;" d="M39.24,36.57c0,2.49-2.05,4.51-4.22,4.51H17.88c-2.17,0-3.64-2.02-3.64-4.51v-9.98
			c0-2.49,1.47-4.51,3.64-4.51h17.14c2.17,0,4.22,2.02,4.22,4.51V36.57z"/>
		<path style="fill:none;stroke:#FFFFFF;stroke-width:3;stroke-miterlimit:10;" d="M19.2,23.14c0,0-0.71-12.15,7.6-12.15
			c3.17,0,4.99,1.64,6.03,3.7"/>
	</g>
</g>
</svg>
