<?xml version="1.0" encoding="utf-8"?>
<!-- Generator: Adobe Illustrator 16.0.0, SVG Export Plug-In . SVG Version: 6.00 Build 0)  -->
<!DOCTYPE svg PUBLIC "-//W3C//DTD SVG 1.1//EN" "http://www.w3.org/Graphics/SVG/1.1/DTD/svg11.dtd" [
	<!ENTITY ns_extend "http://ns.adobe.com/Extensibility/1.0/">
	<!ENTITY ns_ai "http://ns.adobe.com/AdobeIllustrator/10.0/">
	<!ENTITY ns_graphs "http://ns.adobe.com/Graphs/1.0/">
	<!ENTITY ns_vars "http://ns.adobe.com/Variables/1.0/">
	<!ENTITY ns_imrep "http://ns.adobe.com/ImageReplacement/1.0/">
	<!ENTITY ns_sfw "http://ns.adobe.com/SaveForWeb/1.0/">
	<!ENTITY ns_custom "http://ns.adobe.com/GenericCustomNamespace/1.0/">
	<!ENTITY ns_adobe_xpath "http://ns.adobe.com/XPath/1.0/">
]>
<svg version="1.1" id="Layer_1" xmlns:x="&ns_extend;" xmlns:i="&ns_ai;" xmlns:graph="&ns_graphs;"
	 xmlns="http://www.w3.org/2000/svg" xmlns:xlink="http://www.w3.org/1999/xlink" x="0px" y="0px" width="112px" height="112px"
	 viewBox="121.44 0.32 112 112" style="enable-background:new 121.44 0.32 112 112;" xml:space="preserve">
<metadata>
	<sfw  xmlns="&ns_sfw;">
		<slices></slices>
		<sliceSourceBounds  width="348.67" height="110.51" x="34.5" y="145.18" bottomLeftOrigin="true"></sliceSourceBounds>
		<optimizationSettings>
			<targetSettings  targetSettingsID="0" fileFormat="PNG24Format">
				<PNG24Format  transparency="true" filtered="false" matteColor="#FFFFFF" noMatteColor="false" interlaced="false">
					</PNG24Format>
			</targetSettings>
		</optimizationSettings>
	</sfw>
</metadata>
<g>
	<circle style="fill:#137DA1;" cx="176.44" cy="54.82" r="55"/>
	<rect x="176.12" y="77.25" style="fill:#EDEDED;" width="24.64" height="8.8"/>
	<rect x="162.92" y="82.54" style="fill:#EDEDED;" width="47.52" height="3.52"/>
	<path style="opacity:0.4;fill:#3AAECE;enable-background:new    ;" d="M130.03,84.33c-5.44-8.53-8.59-18.66-8.59-29.52
		c0-30.38,24.62-55,55-55c15.12,0,28.81,6.1,38.75,15.97L130.03,84.33z"/>
	<path style="fill:#EDEDED;" d="M181.47,55.58c-0.5,0.53-1.66,0.15-2.47-0.85l0,0c-1.02,0-1.21-1.66-0.71-2.19l14.37-14.96
		c0.5-0.53,2.27-0.94,2.27,0.82v0.03c1,0.88,1.41,1.65,0.91,2.18L181.47,55.58z"/>
	<path style="fill:#EDEDED;" d="M178.33,28.57l-9.12,9.54c0,0,2.57,3.68,5.22,6.21c2.49,2.38,6.23,4.74,6.23,4.74l9.12-9.54
		c0,0-1.96-3.09-5.01-6.01C182.44,31.28,178.33,28.57,178.33,28.57z"/>
	<path style="fill:#EDEDED;" d="M165.51,40.49c-0.5,0.53-1.51-0.75-2.53-0.75l0,0c-0.82,0-1.15-1.76-0.64-2.29l14.65-15.27
		c0.5-0.53,1.53,0.56,2.55,0.56l0,0c0.82,1,1.13,1.95,0.62,2.48L165.51,40.49z"/>
	<path style="fill:#EDEDED;" d="M144.04,80.98c-1.18,1.23-3.12,1.27-4.36,0.1l0,0c-1.23-1.18-1.27-3.13-0.1-4.36l30.41-31.8
		c1.18-1.23,3.13-1.27,4.36-0.1l0,0c1.23,1.18,1.27,3.13,0.1,4.35L144.04,80.98z"/>
</g>
</svg>
