<?xml version="1.0" encoding="utf-8"?>
<!-- Generator: Adobe Illustrator 16.0.0, SVG Export Plug-In . SVG Version: 6.00 Build 0)  -->
<!DOCTYPE svg PUBLIC "-//W3C//DTD SVG 1.1//EN" "http://www.w3.org/Graphics/SVG/1.1/DTD/svg11.dtd" [
	<!ENTITY ns_extend "http://ns.adobe.com/Extensibility/1.0/">
	<!ENTITY ns_ai "http://ns.adobe.com/AdobeIllustrator/10.0/">
	<!ENTITY ns_graphs "http://ns.adobe.com/Graphs/1.0/">
	<!ENTITY ns_vars "http://ns.adobe.com/Variables/1.0/">
	<!ENTITY ns_imrep "http://ns.adobe.com/ImageReplacement/1.0/">
	<!ENTITY ns_sfw "http://ns.adobe.com/SaveForWeb/1.0/">
	<!ENTITY ns_custom "http://ns.adobe.com/GenericCustomNamespace/1.0/">
	<!ENTITY ns_adobe_xpath "http://ns.adobe.com/XPath/1.0/">
]>
<svg version="1.1" id="Layer_1" xmlns:x="&ns_extend;" xmlns:i="&ns_ai;" xmlns:graph="&ns_graphs;"
	 xmlns="http://www.w3.org/2000/svg" xmlns:xlink="http://www.w3.org/1999/xlink" x="0px" y="0px" width="35px" height="35px"
	 viewBox="0 0 35 35" style="enable-background:new 0 0 35 35;" xml:space="preserve">
<metadata>
	<sfw  xmlns="&ns_sfw;">
		<slices></slices>
		<sliceSourceBounds  width="89.02" height="89.02" y="-89.51" x="0.49" bottomLeftOrigin="true"></sliceSourceBounds>
	</sfw>
</metadata>
<g>
	<path style="fill:#78CBEF;" d="M17.5,34.51c9.39,0,17.01-7.61,17.01-17.01c0-9.39-7.61-17.01-17.01-17.01
		C8.11,0.49,0.49,8.11,0.49,17.5C0.49,26.89,8.11,34.51,17.5,34.51"/>
	<path style="fill:#FFFFFF;" d="M26.03,13.04c-0.63,0.28-1.3,0.47-2.01,0.55c0.72-0.43,1.28-1.12,1.54-1.93
		c-0.68,0.4-1.42,0.69-2.22,0.85c-0.64-0.68-1.54-1.1-2.55-1.1c-1.93,0-3.49,1.57-3.49,3.5c0,0.27,0.03,0.54,0.09,0.8
		c-2.9-0.15-5.48-1.54-7.21-3.65c-0.3,0.52-0.47,1.12-0.47,1.76c0,1.21,0.62,2.28,1.55,2.91c-0.57-0.02-1.11-0.18-1.58-0.44v0.04
		c0,1.69,1.21,3.11,2.8,3.43c-0.29,0.08-0.6,0.12-0.92,0.12c-0.23,0-0.44-0.02-0.66-0.06c0.44,1.39,1.73,2.4,3.26,2.43
		c-1.2,0.94-2.7,1.5-4.34,1.5c-0.28,0-0.56-0.02-0.83-0.05c1.55,0.99,3.38,1.57,5.36,1.57c6.43,0,9.95-5.33,9.95-9.94
		c0-0.15,0-0.3-0.01-0.45C24.97,14.36,25.57,13.75,26.03,13.04"/>
</g>
</svg>
