<?xml version="1.0" encoding="utf-8"?>
<!-- Generator: Adobe Illustrator 16.0.0, SVG Export Plug-In . SVG Version: 6.00 Build 0)  -->
<!DOCTYPE svg PUBLIC "-//W3C//DTD SVG 1.1//EN" "http://www.w3.org/Graphics/SVG/1.1/DTD/svg11.dtd" [
	<!ENTITY ns_extend "http://ns.adobe.com/Extensibility/1.0/">
	<!ENTITY ns_ai "http://ns.adobe.com/AdobeIllustrator/10.0/">
	<!ENTITY ns_graphs "http://ns.adobe.com/Graphs/1.0/">
	<!ENTITY ns_vars "http://ns.adobe.com/Variables/1.0/">
	<!ENTITY ns_imrep "http://ns.adobe.com/ImageReplacement/1.0/">
	<!ENTITY ns_sfw "http://ns.adobe.com/SaveForWeb/1.0/">
	<!ENTITY ns_custom "http://ns.adobe.com/GenericCustomNamespace/1.0/">
	<!ENTITY ns_adobe_xpath "http://ns.adobe.com/XPath/1.0/">
]>
<svg version="1.1" id="Layer_1" xmlns:x="&ns_extend;" xmlns:i="&ns_ai;" xmlns:graph="&ns_graphs;"
	 xmlns="http://www.w3.org/2000/svg" xmlns:xlink="http://www.w3.org/1999/xlink" x="0px" y="0px" width="35px" height="35px"
	 viewBox="0 0 35 35" style="enable-background:new 0 0 35 35;" xml:space="preserve">
<metadata>
	<sfw  xmlns="&ns_sfw;">
		<slices></slices>
		<sliceSourceBounds  width="89.02" height="89.02" y="-89.51" x="0.49" bottomLeftOrigin="true"></sliceSourceBounds>
	</sfw>
</metadata>
<g>
	<path style="fill:#547BBC;" d="M17.5,34.51c9.39,0,17.01-7.61,17.01-17.01c0-9.39-7.62-17.01-17.01-17.01
		C8.11,0.49,0.49,8.11,0.49,17.5C0.49,26.89,8.11,34.51,17.5,34.51"/>
	<path style="fill:#FFFFFF;" d="M13.4,14.62h1.76v-1.71c0-0.75,0.02-1.92,0.57-2.64C16.3,9.51,17.09,9,18.45,9
		c2.22,0,3.15,0.32,3.15,0.32l-0.44,2.6c0,0-0.73-0.21-1.42-0.21c-0.68,0-1.3,0.25-1.3,0.93v1.99h2.8l-0.2,2.54h-2.61V26h-3.3v-8.84
		H13.4V14.62z"/>
</g>
</svg>
